<?xml version="1.0" encoding="utf-8"?>
<!-- Generator: Adobe Illustrator 21.0.0, SVG Export Plug-In . SVG Version: 6.00 Build 0)  -->
<svg version="1.1" id="Capa_1" xmlns="http://www.w3.org/2000/svg" xmlns:xlink="http://www.w3.org/1999/xlink" x="0px" y="0px"
	 viewBox="0 0 512 512" style="enable-background:new 0 0 512 512;" xml:space="preserve">
<style type="text/css">
	.st0{fill:#415680;}
</style>
<g>
	<g>
		<polygon class="st0" points="260.6,214.1 0,214.1 0,242 22.3,242 22.3,495.5 206.5,495.5 206.5,242 260.6,242 		"/>
		<path class="st0" d="M395.4,340.7c0,0,0.1,0,0.2,0c34,1,53.4-9.1,56.4-36.1l13.8-124c2.6-23.1-15.8-40.7-34.2-47.5l-0.1,0
			c0,0-6.6-2.1-12.6-3c-6.3-0.8-12.4,0.3-12.4,0.3c-14.4,1.7-28.6,11.8-28.6,11.8c-26.4,18.8-67.4,22.9-121.9,12.1
			c-13.7-2.8-27,6.2-29.8,19.9c-2.7,13.7,6.2,27,19.9,29.7c22.8,4.6,44.1,6.8,63.7,6.8c17.8,0,33.8-2,48.8-5.7l-0.1,1.7l-8.8,79
			c-46,1.7-75,11.1-86.4,28.4c-15.4,23.4-40.3,117.8-47.6,146.7c-3.8,15,5.3,30.1,20.3,33.9c2.3,0.6,4.6,0.9,6.8,0.9
			c12.5,0,23.9-8.5,27.1-21.1c12.8-51,30.6-103.8,38.7-120.6C315.2,339.5,359.6,338.8,395.4,340.7z"/>
		<circle class="st0" cx="412.1" cy="70.6" r="56.5"/>
		<path class="st0" d="M504.5,285.9l7.5-97.3c0-0.6-0.2-1.1-0.6-1.5c-0.4-0.4-0.9-0.6-1.5-0.6h-30.9c-1.1,0-2,0.9-2,2l-7,97.4
			c-0.9,30-9.8,67-60.2,67c-0.7,0-55.8-0.1-55.8-0.1c0,0,0,0,0,0c-0.5,0-1.1,0.2-1.4,0.6c-0.4,0.4-0.6,0.9-0.6,1.4v30.1
			c0,1.1,0.9,2,2,2l50.6,0V456h-15.9c-20.8,0-38.4,18.3-38.4,39.9c0,1.1,0.9,2,2,2h20.1c1.1,0,2-0.9,2-2c0-8,6.5-14.7,14.3-14.7
			h65.9c7.7,0,14.3,6.7,14.3,14.7c0,1.1,0.9,2,2,2h20.1c1.1,0,2-0.9,2-2c0-21.6-17.6-39.9-38.4-39.9h-15.9v-72.9
			C488.6,381.8,500.1,332.5,504.5,285.9z"/>
		<path class="st0" d="M211.9,184.4h-95.5L84.1,66c-0.2-0.8-1.1-1.3-1.9-1.1l-17.2,4.7c-0.4,0.1-0.7,0.4-0.9,0.7
			c-0.2,0.4-0.3,0.8-0.2,1.2l36.2,132.7c0.2,0.7,0.8,1.2,1.5,1.2h110.3c0.9,0,1.6-0.7,1.6-1.6V186
			C213.4,185.1,212.7,184.4,211.9,184.4z"/>
	</g>
</g>
</svg>
