<?xml version="1.0" encoding="utf-8"?>
<!-- Generator: Adobe Illustrator 21.0.0, SVG Export Plug-In . SVG Version: 6.00 Build 0)  -->
<svg version="1.1" id="Capa_1" xmlns="http://www.w3.org/2000/svg" xmlns:xlink="http://www.w3.org/1999/xlink" x="0px" y="0px"
	 viewBox="0 0 512 512" style="enable-background:new 0 0 512 512;" xml:space="preserve">
<style type="text/css">
	.st0{fill:#415680;}
</style>
<g>
	<g>
		<path class="st0" d="M168.6,85.3c11.8,0,21.9-4.2,30.2-12.5c8.3-8.3,12.5-18.4,12.5-30.2s-4.2-21.9-12.5-30.2
			C190.4,4.2,180.4,0,168.6,0s-21.9,4.2-30.2,12.5c-8.3,8.3-12.5,18.4-12.5,30.2s4.2,21.9,12.5,30.2
			C146.7,81.2,156.8,85.3,168.6,85.3z"/>
		<path class="st0" d="M198.8,476.6c-36.8,0-68-13-93.7-39s-38.5-57.8-38.5-95.2c0-40.2,15.6-73.9,46.8-100.9l-3.1-41.6
			c-23.6,15.3-42.5,35.6-56.7,60.9s-21.3,52.6-21.3,81.7c0,47.2,16.3,87.2,48.9,120.2S153,512,198.8,512c32.6,0,63-10.2,91.1-30.7
			c28.1-20.5,48.7-46,61.9-76.5l-25-34.3c-6.2,30.5-21.3,55.8-45.3,76C257.6,466.6,230,476.6,198.8,476.6z"/>
		<path class="st0" d="M458.9,394.4h-21.9l-85.3-117.6c-11.8-20.8-26-31.2-42.7-31.2h-95.7v-42.7h85.3c15.3,0,22.9-5.4,22.9-16.1
			s-7.6-16.1-22.9-16.1h-85.3V128c-1.4-21.5-15.6-31.9-42.7-31.2c-21.5,0.7-32.3,11.1-32.3,31.2v148.8c2.1,21.5,16.3,32.3,42.7,32.3
			h128l74.9,95.7l20.8,32.3h54.1c5.5,0,10.4-2.1,14.6-6.2s6.2-9.2,6.2-15.1c0-5.9-2.1-10.9-6.2-15.1S464.5,394.4,458.9,394.4z"/>
	</g>
</g>
</svg>
