<?xml version="1.0" encoding="utf-8"?>
<!-- Generator: Adobe Illustrator 21.0.0, SVG Export Plug-In . SVG Version: 6.00 Build 0)  -->
<svg version="1.1" id="Capa_1" xmlns="http://www.w3.org/2000/svg" xmlns:xlink="http://www.w3.org/1999/xlink" x="0px" y="0px"
	 viewBox="0 0 512 512" style="enable-background:new 0 0 512 512;" xml:space="preserve">
<style type="text/css">
	.st0{fill:#415680;}
</style>
<g>
	<g id="drive-ms-powerpoint">
		<path class="st0" d="M455.1,0H56.9C25.6,0,0,25.6,0,56.9v398.2C0,486.4,25.6,512,56.9,512h398.2c31.3,0,56.9-25.6,56.9-56.9V56.9
			C512,25.6,486.4,0,455.1,0z M193.4,295.8v102.4h-51.2V113.8h122.3c42.7,0,62.6,8.5,79.6,25.6c19.9,17.1,25.6,39.8,25.6,65.4
			c0,28.4-8.5,51.2-25.6,65.4c-17.1,14.2-37,22.8-79.6,22.8h-71.1V295.8z"/>
		<path class="st0" d="M193.4,256V153.6h65.4c19.9,0,34.1,5.7,42.7,17.1c8.5,11.4,14.2,19.9,14.2,34.1c0,17.1-5.7,25.6-14.2,37
			c-8.5,8.5-19.9,14.2-39.8,14.2H193.4z"/>
	</g>
</g>
</svg>
