<?xml version="1.0" encoding="utf-8"?>
<!-- Generator: Adobe Illustrator 21.0.0, SVG Export Plug-In . SVG Version: 6.00 Build 0)  -->
<svg version="1.1" id="Capa_1" xmlns="http://www.w3.org/2000/svg" xmlns:xlink="http://www.w3.org/1999/xlink" x="0px" y="0px"
	 viewBox="0 0 512 512" style="enable-background:new 0 0 512 512;" xml:space="preserve">
<style type="text/css">
	.st0{fill:#415680;}
</style>
<g>
	<path class="st0" d="M474.6,492c-30.6-36.2-85.5-63.9-151.8-75.1c-6.5-38.8-18.1-57-18.4-57.5c5-2.4,11.1-3.2,18.1-1.6
		c8.5,1.9,14.3,6.4,17.8,12.1c1,1.7,3.6,1.1,3.9-0.8c0.4-2.8,0.3-5.9-0.7-9.3c-2.4-8.5-9.1-15.6-17.7-17.5c-5.6-1.2-11.3-0.3-16,2.2
		c4.4-3.8,9.9-6.9,16.5-9.1c14.4-4.6,26.9-2.4,36.6,3.9c1.6,1,3.7-0.5,3.1-2.4c-1.6-5.8-4.8-11.6-10.8-16.8
		c-10.1-8.8-24-12.7-36.8-8.5c-4.1,1.4-7.8,3.4-11.1,5.9c0.2-0.3,0.5-0.6,0.7-0.9c9.4-11,20.6-15.8,31.7-16c2.4-0.1,3.5-3.2,1.6-4.7
		c-3.9-3.3-8.8-5.9-15.1-7.2c-14.2-3-29.1,1.2-38.1,12.6c-3.2,4.1-5.5,8.6-6.8,13.3c-3.8-3.1-8.3-5.5-13.3-6.9
		c-13.9-3.9-28.5,1.3-38.2,12c-4.2,4.6-6.6,9.4-7.9,14.2c-0.7,2.5,2.2,4.5,4.3,3.1c9.1-6.1,20.9-8.7,34.8-5.3
		c0.4,0.1,0.8,0.2,1.1,0.3c-4.1-0.2-8.3,0.4-12.4,1.7c-12.8,4-21.9,15.2-24.9,28.3c-1.7,7.5-1.1,13.9,0.9,19.5
		c0.7,2,3.5,2.1,4.3,0.1c4.4-10.5,13.2-19.4,27.3-24c6.7-2.1,12.9-2.8,18.7-2.3c-5.3,0.7-10.4,3.2-14.3,7.5
		c-5.9,6.6-7.2,16.1-4.2,24.5c1.2,3.4,2.9,6,4.9,8c1.3,1.4,3.8,0.3,3.6-1.6c-0.5-6.7,1.6-13.7,7.4-20.2c4.5-5,9.5-8.2,14.7-8.9l0,0
		c0,0,8.1,20,9.3,48.9c-13.6-1.4-27.5-2.2-41.7-2.2c-34.8,0-68,4.3-98,12.2c6.2-135.5,89.6-225.2,89.7-225.7v0
		c10.3,6.8,18.9,17.2,24.6,31.8c7.3,19,6,36.1-0.6,50.3c-1.9,4.1,2.5,8.4,6.6,6.5c6.1-2.8,12-7.1,17.4-13.4
		c13.4-15.7,18.6-37.7,11-56.9c-5-12.5-14-22.2-25-28.2c13,3.6,26.1,10.2,38.9,20.3c27.1,21.6,39,48.3,39.9,74.8
		c0.2,5,6.3,7.2,9.5,3.4c8.8-10.5,15.5-24,17.9-41.8c4.2-31-6.5-63.1-31.1-82.3c-8-6.2-16.7-10.9-25.8-13.9c0.9,0.1,1.8,0.2,2.7,0.3
		c33.1,3.9,56.8,19.2,71.7,40.1c3.5,4.9,11.4,2.8,11.9-3.2c1.2-11.6-0.2-24.1-5.6-37.6c-12.5-31.4-40-54.8-73.6-57.7
		c-12.1-1-23.8,0.5-34.7,4.1c1.1-11.4-0.1-23.1-3.8-34.7C289.1,27.5,260.1,6,226.7,1c-14.8-2.2-27.6-0.6-38.8,3.3
		c-5.3,1.9-5.6,9.6-0.3,11.7c24,9.7,44.7,29.3,56.1,61.1c0.3,0.9,0.6,1.7,0.9,2.6c-5-8.2-11.5-15.6-19.4-22
		c-24.3-19.6-58-22.8-87.2-11.7c-17.4,6.6-29.1,16.5-37.5,27.9c-2.7,3.7,0.5,8.7,4.9,7.7c26.4-5.5,55.6-0.2,83.1,21.7
		c12.8,10.1,22.2,21.4,28.6,33.3c-8.3-9.4-19.8-16-33.1-18c-20.4-3.1-40.7,7-53,23.6c-4.9,6.6-7.7,13.3-9.1,19.8
		c-0.9,4.4,4.3,7.8,7.9,5c12.3-9.6,28.7-14.6,48.8-11.8c16.5,2.3,29.1,9.1,38.2,18.4C215.2,175,114.6,250,48.7,479.8
		c-4,3.8-7.8,7.8-11.2,11.8c-6.8,8-1,20.3,9.4,20.3h418.2C475.4,512.1,481.2,499.9,474.6,492z"/>
</g>
</svg>
