<?xml version="1.0" encoding="utf-8"?>
<!-- Generator: Adobe Illustrator 21.0.0, SVG Export Plug-In . SVG Version: 6.00 Build 0)  -->
<svg version="1.1" id="Capa_1" xmlns="http://www.w3.org/2000/svg" xmlns:xlink="http://www.w3.org/1999/xlink" x="0px" y="0px"
	 viewBox="0 0 512 512" style="enable-background:new 0 0 512 512;" xml:space="preserve">
<style type="text/css">
	.st0{fill:#415680;}
</style>
<g>
	<g id="Wi-Fi">
		<g>
			<path class="st0" d="M256,349.5c-25.8,0-46.8,20.9-46.8,46.8S230.2,443,256,443s46.8-20.9,46.8-46.8
				C302.8,370.5,281.8,349.5,256,349.5z M506.5,186C444,111.6,352.7,69,256,69S68,111.6,5.5,186c-8.3,9.9-7,24.6,2.9,32.9
				c4.4,3.7,9.7,5.5,15,5.5c6.7,0,13.3-2.8,17.9-8.3C94.9,152.3,173.2,115.7,256,115.7s161.1,36.6,214.7,100.4
				c4.6,5.5,11.3,8.3,17.9,8.3c5.3,0,10.6-1.8,15-5.5C513.5,210.7,514.8,195.9,506.5,186z M256,162.5c-69.1,0-134.3,30.5-178.9,83.6
				c-8.3,9.9-7,24.6,2.9,32.9c4.4,3.7,9.7,5.5,15,5.5c6.7,0,13.3-2.8,17.9-8.3c35.7-42.5,87.9-66.9,143.1-66.9
				s107.4,24.4,143.2,66.9c4.6,5.5,11.3,8.3,17.9,8.3c5.3,0,10.6-1.8,15-5.5c9.9-8.3,11.2-23.1,2.9-32.9
				C390.3,193,325.1,162.5,256,162.5z M256,256c-41.5,0-80.6,18.3-107.4,50.2c-8.3,9.9-7,24.6,2.9,32.9c4.4,3.7,9.7,5.5,15,5.5
				c6.7,0,13.3-2.8,17.9-8.3c17.9-21.3,44-33.5,71.6-33.5s53.7,12.2,71.6,33.5c4.6,5.5,11.3,8.3,17.9,8.3c5.3,0,10.6-1.8,15-5.5
				c9.9-8.3,11.2-23.1,2.9-32.9C336.6,274.3,297.5,256,256,256z"/>
		</g>
	</g>
</g>
</svg>
