<?xml version="1.0" encoding="utf-8"?>
<!-- Generator: Adobe Illustrator 21.0.0, SVG Export Plug-In . SVG Version: 6.00 Build 0)  -->
<svg version="1.1" id="Capa_1" xmlns="http://www.w3.org/2000/svg" xmlns:xlink="http://www.w3.org/1999/xlink" x="0px" y="0px"
	 viewBox="0 0 512 512" style="enable-background:new 0 0 512 512;" xml:space="preserve">
<style type="text/css">
	.st0{fill:#415680;}
</style>
<g>
	<g id="_x32_0_1_">
		<g>
			<path class="st0" d="M396.8,126.3h-23.4l48.2-113.5c2-4.7-0.2-10.1-4.9-12c-4.6-2-10,0.2-12,4.9l-51.3,120.7h-67.7
				c-3.7-50.8-46.2-91.1-97.9-91.1c-54.2,0-98.3,44.1-98.3,98.3s44.1,98.3,98.3,98.3c15.4,0,30.5-3.6,44.1-10.5
				c1.2,13.6-1.6,27.5-8.8,39.8c-11.9,20.3-16.1,43.6-12.2,67.4c6.7,39.7,37.4,71.8,76.6,80c4.4,0.9,8.8,1.4,13.2,1.8v83.3h-73.4
				c-5.1,0-9.2,4.1-9.2,9.2c0,5.1,4.1,9.2,9.2,9.2h165.3c5.1,0,9.2-4.1,9.2-9.2c0-5.1-4.1-9.2-9.2-9.2h-73.4v-83.4
				c22.7-2.3,43.7-12.2,60-28.6c18.8-18.8,29.1-43.7,29.1-70.3c0-16.9-4.3-33.6-12.5-48.2c-15.8-28.4-11.9-62.1,9.7-83.8l9.5-9.5
				c7.4-7.5,9.6-18.1,5.5-27.9C416.4,132.3,407.3,126.3,396.8,126.3z M187.9,213.5c-44.1,0-80-35.9-80-80c0-44.1,35.9-80,80-80
				c41.6,0,75.9,32,79.6,72.7h-46.6c-10.5,0-19.6,6.1-23.6,15.8c-4,9.7-1.9,20.4,5.5,27.8l9.5,9.5c6.9,6.9,12,14.9,15.3,23.4
				C215.6,209.8,201.9,213.5,187.9,213.5z M239,270.5c19.7-33.5,14.1-76.3-13.6-104.1l-9.5-9.5c-3.2-3.2-2-6.8-1.6-7.8
				c0.4-1,2.2-4.4,6.6-4.4h124.8l-62.4,146.9h-52.9C232.2,284.3,235.1,277.2,239,270.5z M366.1,368.7
				c-19.4,19.4-47.2,27.6-74.8,21.9c-31.8-6.7-56.8-32.8-62.2-65c-0.9-5.2-1.2-10.4-1.1-15.6h161.8c0,0.5,0.1,1,0.1,1.5
				C389.8,333.1,381.4,353.4,366.1,368.7z M401.9,156.9l-9.5,9.5c-27.5,27.5-32.7,70-12.8,105.7c3.4,6.1,6,12.7,7.7,19.5h-84.1
				l62.4-146.9h31.2c4.4,0,6.2,3.4,6.6,4.4C403.9,150.1,405,153.8,401.9,156.9z"/>
		</g>
	</g>
</g>
</svg>
