<?xml version="1.0" encoding="utf-8"?>
<!-- Generator: Adobe Illustrator 21.0.0, SVG Export Plug-In . SVG Version: 6.00 Build 0)  -->
<svg version="1.1" id="Capa_1" xmlns="http://www.w3.org/2000/svg" xmlns:xlink="http://www.w3.org/1999/xlink" x="0px" y="0px"
	 viewBox="0 0 512 512" style="enable-background:new 0 0 512 512;" xml:space="preserve">
<style type="text/css">
	.st0{fill:#415680;}
</style>
<g id="XMLID_55_">
	<polygon id="XMLID_63_" class="st0" points="338.4,263.8 338.4,221.1 295.6,221.1 	"/>
	<path id="XMLID_62_" class="st0" d="M60.4,234.7v42.6c0,7.5,6.1,13.6,13.6,13.6h142.3l-69.9-69.9H74.1
		C66.5,221.1,60.4,227.2,60.4,234.7z"/>
	<path id="XMLID_61_" class="st0" d="M437.9,221.1h-57.8v69.9h57.8c7.5,0,13.6-6.1,13.6-13.6v-42.6
		C451.6,227.2,445.5,221.1,437.9,221.1z"/>
	<path id="XMLID_57_" class="st0" d="M256,0C114.8,0,0,114.8,0,256c0,141.2,114.8,256,256,256c141.2,0,256-114.8,256-256
		C512,114.8,397.2,0,256,0z M357.4,431.9c-29.9,17.3-64.4,27.3-101.4,27.3c-112.1,0-203.3-91.2-203.3-203.3
		c0-36.9,10.1-71.5,27.3-101.4c4.5-7.8,9.5-15.2,15-22.3l284.6,284.6C372.6,422.4,365.1,427.4,357.4,431.9z M431.9,357.4
		c-4.5,7.8-9.5,15.2-15,22.3L132.3,95c7.1-5.5,14.5-10.5,22.3-15c29.9-17.3,64.4-27.3,101.4-27.3c112.1,0,203.3,91.2,203.3,203.3
		C459.3,292.9,449.2,327.5,431.9,357.4z"/>
	<path id="XMLID_56_" class="st0" d="M401,204.6c19.4-26.1-21.3-65.9-28.2-72.7c-6.8-6.6-45-39.2-46.5-53.8
		c-13.7,25.7,7,52.6,28.2,72.7C366.4,162.1,400.3,186,401,204.6z"/>
</g>
</svg>
